<svg xmlns="http://www.w3.org/2000/svg"><symbol id="comment" viewBox="0 0 24 24"><path fill="#568ebe" d="M19.2 3.6H4.8C3.48 3.6 2.4 4.68 2.4 6v8.4c0 1.32 1.08 2.4 2.4 2.4h4.8l4.8 3.6v-3.6h4.8c1.32 0 2.4-1.08 2.4-2.4V6c0-1.32-1.08-2.4-2.4-2.4z"/></symbol><symbol id="logo" viewBox="0 123.3 595.3 595.3"><linearGradient id="a" gradientUnits="userSpaceOnUse" x1="55.091" y1="808.06" x2="210.094" y2="609.238" gradientTransform="matrix(2.2825 0 0 -2.2825 0 2044.932)"><stop offset="0" stop-color="#313438"/><stop offset="1" stop-color="#18171d"/></linearGradient><circle fill="url(#a)" cx="297.4" cy="420.7" r="286.9"/><path fill="#41454D" d="M262.7 292.2s-154.8-75.8-162.1-79.9C69.2 241.8 44.5 278.5 29 319.6c28.1 15.3 86.7 43.8 113.4 55.7 34.2 15.3 77.6 41.1 84.5 92.9 6.8 51.8-51.8 60-96.6 66.2C96.7 539 49 524.1 26.9 516.1c14.8 42.5 39.5 80.3 71.2 110.9 71.2 5 166.2-3.9 204.3-18.9 40.9-16 116.9-35.6 130.3-133.1 14-105.9-170-182.8-170-182.8z"/><g fill="#FFF"><path d="M107.7 263.2h14.6v2.5h-11.6v13h10.7v2.5h-10.7v16.4h-3v-34.4zM151.8 280.6V276c0-1.6.2-3 .5-4.3.2-1.4.5-2.5.9-3.7.5-1.1.9-2.1 1.8-3 .7-.9 1.8-1.4 3-1.8 1.1-.5 2.7-.7 4.3-.7 1.8 0 3.2.2 4.3.7 1.1.5 2.1 1.1 3 1.8.7.9 1.4 1.8 1.8 3 .5 1.1.7 2.3.9 3.7.2 1.4.2 2.7.5 4.3v9.2c0 1.6-.2 3-.5 4.3-.2 1.4-.5 2.5-.9 3.7-.5 1.1-.9 2.1-1.8 3-.7.7-1.8 1.4-3 1.8-1.1.5-2.7.7-4.3.7-1.8 0-3.2-.2-4.3-.7-1.1-.5-2.1-1.1-3-1.8-.7-.9-1.4-1.8-1.8-3-.5-1.1-.7-2.3-.9-3.7-.2-1.4-.2-2.7-.5-4.3v-4.6zm3.2 0c0 2.3 0 4.3.2 6.4 0 1.8.5 3.4.9 4.8s1.1 2.5 2.3 3.2c.9.7 2.3 1.1 4.1 1.1s3.2-.5 4.1-1.1c.9-.7 1.8-1.8 2.3-3.2.5-1.4.7-3 .9-4.8 0-1.8.2-3.9.2-6.4 0-2.5 0-4.3-.2-6.4 0-1.8-.5-3.4-.9-4.8-.5-1.4-1.1-2.5-2.3-3.2-.9-.7-2.3-1.1-4.1-1.1s-3.2.5-4.1 1.1-1.8 1.8-2.3 3.2c-.5 1.4-.7 3-.9 4.8-.2 1.8-.2 4.1-.2 6.4zM211.6 265.7h-8.4v-2.5H223v2.5h-8.4v32h-3v-32zM253.6 280.6V276c0-1.6.2-3 .5-4.3.2-1.4.5-2.5.9-3.7.5-1.1.9-2.1 1.8-3 .7-.9 1.8-1.4 3-1.8 1.1-.5 2.7-.7 4.3-.7 1.8 0 3.2.2 4.3.7 1.1.5 2.1 1.1 3 1.8.7.9 1.4 1.8 1.8 3 .5 1.1.7 2.3.9 3.7.2 1.4.2 2.7.5 4.3v9.2c0 1.6-.2 3-.5 4.3-.2 1.4-.5 2.5-.9 3.7-.5 1.1-.9 2.1-1.8 3-.7.9-1.8 1.4-3 1.8-1.1.5-2.7.7-4.3.7-1.8 0-3.2-.2-4.3-.7-1.1-.5-2.1-1.1-3-1.8-.7-.9-1.4-1.8-1.8-3-.5-1.1-.7-2.3-.9-3.7-.2-1.4-.2-2.7-.5-4.3v-4.6zm3 0c0 2.3 0 4.3.2 6.4 0 1.8.5 3.4.9 4.8s1.1 2.5 2.3 3.2c.9.7 2.3 1.1 4.1 1.1s3.2-.5 4.1-1.1c.9-.7 1.8-1.8 2.3-3.2.5-1.4.7-3 .9-4.8 0-1.8.2-3.9.2-6.4 0-2.5 0-4.3-.2-6.4 0-1.8-.5-3.4-.9-4.8s-1.1-2.5-2.3-3.2c-.9-.7-2.3-1.1-4.1-1.1s-3.2.5-4.1 1.1c-.9.7-1.8 1.8-2.3 3.2-.5 1.4-.7 3-.9 4.8s-.2 4.1-.2 6.4zM323.9 282.4h-7.1v-2.5h10v17.3c-3 .9-6.2 1.4-9.6 1.4-1.8 0-3.4-.2-4.8-.9-1.1-.7-2.3-1.4-3-2.3-.7-.9-1.4-2.1-1.8-3.2-.5-1.1-.7-2.5-.7-3.9-.2-1.4-.2-2.7-.2-3.9v-3.7-3.7c0-1.4 0-2.7.2-4.1.2-1.4.5-2.5.7-3.9.2-1.4.9-2.3 1.8-3.2.9-.9 1.8-1.8 3-2.3 1.1-.7 2.7-.9 4.8-.9 3.2 0 5.7.7 7.5 2.3 1.6 1.6 2.5 3.9 2.5 7.3h-3c0-2.3-.5-4.1-1.6-5.2s-2.7-1.8-5.2-1.8c-1.8 0-3.4.5-4.3 1.1s-1.8 1.8-2.3 3.2c-.5 1.4-.7 3-.7 4.8v12.4c0 2.1.2 3.4.7 4.8.5 1.4 1.1 2.5 2.3 3.2.9.7 2.5 1.1 4.3 1.1 1.4 0 2.5 0 3.7-.2s2.1-.5 2.7-.7v-12.5zM363.8 281v16.7h-3v-34.5h9.6c1.6 0 3 .2 4.1.5 1.1.2 2.1.7 2.5 1.4.7.7 1.1 1.6 1.4 2.5.2 1.1.5 2.3.5 3.9 0 1.1 0 2.1-.2 3-.2.9-.5 1.6-.7 2.3-.2.7-.9 1.4-1.6 1.8-.7.5-1.6.9-2.7 1.1 1.1.2 2.1.5 2.7.9.7.2 1.1.9 1.6 1.8.2.9.5 2.3.7 3.9.2 1.6.2 4.1.2 7.3 0 .7 0 1.4.2 2.1 0 .7.2 1.4.2 2.1h-3c0-.2-.2-.7-.2-1.6 0-.7 0-1.6-.2-2.5V291v-2.1-1.8c0-.9-.2-1.8-.5-2.7-.2-.9-.9-1.8-1.6-2.5-.9-.7-2.1-1.1-3.7-1.1h-6.4v.2zm0-2.5h5c1.1 0 2.1 0 3-.2s1.6-.5 2.1-1.1c.5-.5.9-1.1 1.1-2.1.2-.9.5-2.1.5-3.4 0-1.1-.2-2.1-.5-3-.2-.7-.7-1.4-1.1-1.8-.5-.5-.9-.7-1.6-.9-.7-.2-1.4-.2-2.3-.2h-6.4v12.8h.2zM423.6 263.2l10.7 34.7h-3.2l-2.7-9.1H415l-2.7 9.1h-3l11-34.7h3.3zm3.9 22.8l-5.9-19.6-5.9 19.6h11.8zM465.2 263.2h14.6v2.5h-11.6v13h10.7v2.5h-10.7v16.4h-3v-34.4zM94.7 337.2h51.8v15.3H129V444h-16.7v-91.5H94.7v-15.3zM173 444h-16.7V337.2H173v45.7h19v-45.7h17.1v106.6H192v-45.7h-19V444zM222.3 362.7c0-17.1 8.9-26.9 25.6-26.9 16.4 0 25.6 9.8 25.6 26.9v55.5c0 17.1-8.9 26.9-25.6 26.9-16.4 0-25.6-9.8-25.6-26.9v-55.5zm16.9 56.6c0 7.5 3.4 10.5 8.7 10.5 5.2 0 8.7-3 8.7-10.5v-57.5c0-7.5-3.4-10.5-8.7-10.5-5.2 0-8.7 3-8.7 10.5v57.5zM321.8 413h.2l11.2-75.8h23.3v106.6h-15.7v-76.5h-.2l-11.2 76.5h-15.7l-12.1-75.6h-.2v75.6h-14.6V337.2H310l11.8 75.8zM425.7 444h-16.9l-3-19.4h-20.5l-3 19.4H367l17.1-106.6h24.4L425.7 444zm-38.1-34h16.2l-8-53.9h-.2l-8 53.9zM458.6 336c16.2 0 24.7 9.8 24.7 26.9v3.4h-15.7V362c0-7.5-3-10.5-8.4-10.5s-8.4 3-8.4 10.5c0 7.8 3.4 13.5 14.4 23.1 13.9 12.3 18.5 21.2 18.5 33.3 0 17.1-8.4 26.9-25.1 26.9-16.4 0-25.1-9.8-25.1-26.9v-6.6H449v7.5c0 7.5 3.4 10.3 8.7 10.3 5.2 0 8.7-2.7 8.7-10.3 0-7.8-3.4-13.5-14.4-23.1-14-12.2-18.6-21.1-18.6-33.2.5-17.1 8.7-27 25.2-27zM146.3 540.5h.2l11.2-75.8H181v106.6h-15.7v-76.5h-.3l-11.2 76.5h-15.7L126 495.8h-.5v75.6h-14.6V464.8h23.3l12.1 75.7zM200.9 464.8h16.7v106.6h-16.7V464.8zM259.3 528.9l-5.2 9.8v32.9h-16.7V465H254v46.1h.2L276 465h16.7l-23.3 47.5 23.3 59.1h-17.1l-16.3-42.7zM329.8 528.9l-5.2 9.8v32.9h-16.7V465h16.7v46.1h.2l21.7-46.1h16.7l-23.1 47.2 23.3 59.1h-17.1l-16.5-42.4zM395.3 509.7h23.1V525h-23.1v31.3h29v15.3h-45.7V465h45.7v15.3h-29v29.4zM442.1 464.8h16.7v91.5h27.6v15.3h-44.3V464.8z"/></g></symbol></svg>