<?xml version="1.0" encoding="UTF-8"?>
<svg width="424px" height="471px" viewBox="0 0 424 471" version="1.1" xmlns="http://www.w3.org/2000/svg" xmlns:xlink="http://www.w3.org/1999/xlink">
    <!-- Generator: Sketch 60 (88103) - https://sketch.com -->
    <title>Untitled 3</title>
    <desc>Created with Sketch.</desc>
    <g id="Page-1" stroke="none" stroke-width="1" fill="none" fill-rule="evenodd" opacity="0.25">
        <g id="watermark" fill="#000000" fill-rule="nonzero">
            <g id="Page-1">
                <g id="watermark">
                    <g id="Lag_1">
                        <g id="Group">
                            <path d="M261.6,162.5 C262.3,166.1 260.4,170 258.5,172.8 C251.3,183.1 240.2,191.6 227.7,195 C225.9,195.4 223.4,195.4 222,193.9 C220.3,191 222.6,187.3 224.2,184.8 C229.3,176.8 236.6,170.6 244.8,165.3 C247.6,163.9 250.4,162.5 253.4,161.6 C256.1,161.4 259.6,159.7 261.6,162.5 Z M257.9,163.7 C257.7,163.5 257.3,163.3 257,163.5 C257.5,164.4 258.3,165.2 258.8,165.9 C258.8,165.5 258.7,165.1 258.6,164.8 L257.9,163.7 Z M255.9,163.6 L255.4,163.4 C254.8,163.4 254,163.6 253.7,164.1 C254.9,166 256.3,168 257.8,169.6 L258.1,169.2 C257.7,168.4 256.8,167.6 256.5,166.6 C257.5,166.3 257.7,167.8 258.5,168.2 C258.7,168.1 258.6,167.8 258.8,167.6 L255.9,163.6 Z M255.6,164.9 C255.3,164.9 255.1,165.2 255.4,165.5 C255.6,165.7 256,165.7 256.1,165.3 C256,165.1 255.8,165.1 255.6,164.9 Z M252.2,164.2 C251.6,164.5 250.7,164.3 250.3,165 C252,167.6 253.6,170.5 255.8,172.7 L256.1,172.2 C255.6,171.2 254.7,170.5 254.4,169.3 L254.6,169.1 C255.6,169.5 255.6,170.8 256.6,171.4 C256.9,171.4 257,171 257.1,170.6 C255.6,168.5 254,166.2 252.2,164.2 Z M248.8,165.6 L247.1,166.5 C249.2,169.8 251.4,172.7 253.7,175.7 L254.1,175.2 C253.6,174 252.5,173.4 252.2,172.1 C252.3,171.9 252.5,171.7 252.7,171.9 L254.5,174.3 C254.9,174.7 255,174 255.3,173.8 C252.9,171.2 251.2,168.2 248.8,165.6 Z M253.3,167.9 C253.2,168.2 253.4,168.5 253.7,168.6 C253.9,168.5 254.1,168.4 254.1,168.2 C254,167.7 253.4,167.5 253.3,167.9 Z M246,167.3 C245.3,167.6 244.8,167.8 244.3,168.3 C246.5,171.8 249.1,175.1 251.6,178.4 L251.9,177.9 L249.7,174.5 C249.9,174.1 250.2,174.4 250.5,174.4 L252.5,177.2 C252.6,176.9 252.9,176.9 252.9,176.6 L246,167.3 Z M250.8,170.5 C250.8,170.7 250.8,171.1 251.2,171.2 C251.4,171.2 251.7,171.1 251.7,170.8 C251.7,170.3 250.9,169.9 250.8,170.5 Z M242.9,169 C242.2,169.4 241.4,169.8 241,170.4 L248.1,180.4 L248.7,180.8 C248.9,180.8 249.1,180.6 249.2,180.4 C248.5,179.3 247.5,178.5 247.1,177.3 C247.2,177.1 247.3,176.7 247.7,176.9 L249.7,179.6 C250.1,180.3 250.5,179.4 250.7,179.1 L242.9,169 Z M248.7,172.8 C248.5,173 248.4,173.3 248.7,173.5 C248.9,173.6 249.3,173.7 249.4,173.4 C249.3,173 249.1,172.7 248.7,172.8 Z M239.9,171 L237.9,172.7 C240.4,176.3 243.1,179.9 245.8,183.4 C246,183.3 246.3,183.1 246.5,182.8 C245.7,181.6 244.8,180.7 244.2,179.3 C244.4,179.2 244.7,179 245,179.2 L247.3,182.1 C247.5,182 247.8,181.8 247.7,181.6 L245.9,178.9 C243.9,176.3 241.8,173.8 239.9,171 Z M245.8,175.1 C245.6,175.5 245.8,175.8 246.1,175.9 C246.4,176 246.6,175.8 246.7,175.5 C246.6,175.2 246.2,174.6 245.8,175.1 Z M236.8,173.6 C236.2,174.3 235.3,174.6 235,175.3 C237.6,178.7 240.2,181.9 242.5,185.5 L242.8,185.6 C243,185.6 243.1,185.3 243.2,185.2 C242.6,183.9 241.4,183.2 241,181.8 C241.2,181.5 241.5,181.5 241.9,181.5 C242.8,182.5 243.3,183.8 244.3,184.6 C244.5,184.5 244.8,184.4 244.7,184.1 C242.3,180.6 239.6,177.4 237.2,173.8 L236.8,173.6 Z M242.8,177.6 C242.7,177.9 242.9,178.3 243.2,178.4 C243.4,178.6 243.7,178.3 243.8,178.1 C243.9,177.7 243.1,176.9 242.8,177.6 Z M234.1,176.2 C233.4,176.7 232.7,177.2 232.3,177.9 C234.5,181.2 237.2,184.6 239.5,187.7 C239.6,187.6 240.2,187.5 240.2,187.1 C239.5,186.1 238.4,185.1 238.2,184 C238.3,183.7 238.8,183.6 239,183.8 L241.1,186.7 C241.3,186.5 241.8,186.6 241.8,186.1 C239.2,182.9 236.6,179.5 234.1,176.2 Z M239.7,180 C239.5,180.2 239.8,180.6 240.1,180.7 C240.4,180.8 240.6,180.6 240.6,180.4 C240.9,179.7 239.8,179.5 239.7,180 Z M231.3,179 C230.7,179.6 230.1,180.3 229.7,180.9 C231.7,184 234.1,186.7 236.2,189.7 C236.4,189.6 236.8,189.6 236.9,189.2 L235,186.6 C234.9,186.4 234.9,186 235.2,186 C236.4,186.4 236.8,188 237.8,188.8 C237.9,188.7 238.3,188.7 238.4,188.3 C235.9,185.4 233.9,182 231.3,179 Z M237.1,182.1 C236.7,182.2 236.7,182.5 236.9,182.7 C237,183 237.6,183 237.7,182.6 C237.8,182.2 237.3,182.1 237.1,182.1 Z M228.6,182 L227.2,183.8 C228.1,186.5 230.6,188.6 232,191.1 C232.3,191.4 232.7,191.3 233,191 L231.5,188.8 C231.4,188.6 231.4,188.2 231.7,188.1 C232.6,188.4 233.1,189.5 233.6,190.4 C233.9,191.1 234.6,190.5 234.9,190.2 C233.1,187.5 230.9,185.1 229,182.4 L228.6,182 Z M234.1,184.2 C233.9,184.2 233.7,184.3 233.6,184.5 C233.6,184.8 233.7,185.2 234.1,185.2 C234.3,185.4 234.7,185.1 234.7,184.8 C234.7,184.6 234.5,184.2 234.1,184.2 Z M230,186.8 C229.8,187.1 230.3,187.2 230.4,187.3 C230.7,187.5 231.1,187.1 231,186.8 C230.8,186.6 230.2,186.3 230,186.8 Z M226.3,185.6 C225.7,186.2 225.2,187.2 225,188 L228.3,192.5 C228.5,193.1 229.2,192.7 229.4,192.5 C228.8,191.8 228.2,191 227.9,190.3 C228,190.1 228.3,190 228.6,190.1 C229.2,190.8 229.6,191.8 230.4,192.3 C230.7,192.2 231,192.1 231.2,191.9 L226.3,185.6 Z M226.8,188.8 C226.8,189.1 227,189.1 227.2,189.2 C227.4,189.2 227.6,189.1 227.7,188.9 C227.6,188.5 226.8,188.4 226.8,188.8 Z M224.4,189.5 C224.1,189.6 224.1,189.9 224,190.1 L224.4,190.3 C224.4,190.5 224.8,190.6 224.6,190.9 C224.4,191 224.1,191 223.8,191 C223.4,191 223.8,191.4 223.7,191.5 C223.9,192.3 224.5,193.2 225.3,193.2 C225.1,192.7 224.4,192.3 224.5,191.7 C225.8,191.3 225.9,194.5 227.4,193 L224.4,189.5 Z" id="Shape"></path>
                            <path d="M159.3,51.6 C174.3,70.7 195.2,83.9 220.4,89.9 L212.1,119.1 L165.2,106.7 L152.2,140.1 C149.7,146.6 147,153.2 144.6,159.6 L134.4,185.2 L131,193.8 C130.9,195.1 131.9,196 132.2,197.2 C134.4,202 133,208.8 129.3,212.6 C125.4,216.6 119.6,218.3 114.1,216.9 C108.2,215.2 103.8,210 103.2,204 C102.4,197.8 106.2,191.9 111.5,189 L115.3,157.5 L117.6,139.4 L121.3,106.4 C121.7,102.6 122.3,99.2 122.2,95.5 L76.8,83.5 C79.3,73.2 84,54.5 83.9,54.7 C109.1,61.8 133.8,60 156.7,50.2 C156.9,50 157.1,49.8 157.5,49.7 C158.2,50.2 158.7,51 159.3,51.6 Z M156.6,54 C139.7,60.9 121.8,63.5 103.5,61.7 C97.9,61.3 92,60.1 86.5,58.9 C84.6,65.9 83.1,72.1 81.4,79.3 L81.6,79.6 L85.2,80.6 L204.2,111.2 L209.1,112.3 L214.6,92 C190.7,85.3 171.6,72.1 156.6,54 Z M152.1,100.6 L128.9,94.6 L126.5,94.2 C126,96.7 125.9,99.3 125.6,101.9 L122,131.7 L118.2,162.3 L115,189 L124.3,191.6 C125.4,191.6 126.5,192.5 127.4,192.1 C128.1,191.1 128.7,189.8 129.2,188.5 L145.9,146.1 L156.4,118.6 C158.3,113.4 160.4,108.3 162.2,103.1 L152.1,100.6 Z M113.6,191.8 C111,192.9 108.9,194.8 107.7,197.1 C105.7,200.9 106.1,205.3 108.3,208.9 C110.5,212.3 114.7,214.3 118.9,214.2 C122.7,213.9 126.8,211.6 128.5,208.2 C130.6,204.1 130.4,199.1 127.4,195.6 C122.7,194 118.5,193.1 113.6,191.8 Z" id="Shape"></path>
                            <path d="M106.4,243.8 C107.4,243.6 109.3,243.2 110.5,243 C115.8,242.1 121.9,241.9 126.9,245.1 C130.9,247.7 134.1,252.3 134,257.2 C134.2,260.8 132.4,264 129.1,265.6 C129,265.6 128.6,265.9 128.1,265.9 C127.9,264.5 127.2,263.4 126.5,262.2 C125.2,260.4 122.2,258.9 120,259.3 C117.3,259.4 116.4,261.1 115.8,262.9 L106.3,299 L144.4,309.1 C146.4,309.1 148.4,308 149.4,306.2 C150.9,303.7 150.3,300.9 149,298.5 C148.7,297.8 147.2,297.4 148,296.5 C150.3,294.6 153.3,295 156,295.6 C159.1,296.6 161.7,298.8 163.1,301.8 C164.7,304.6 165.1,307.9 164.5,311 C163.8,316.9 161.2,322.6 155.7,325.4 C158.2,331.6 158.4,339.1 154.8,345.2 C152.5,349 148,352.3 143.4,352.1 C141,351.7 137.7,350.5 136.5,349.7 C135.5,348.9 134.6,347.7 133.9,346.6 C134.3,345.8 135.2,345.8 136.1,345.7 C138.2,345.1 139.5,343.1 140,340.9 C140.4,338.7 139.7,337 137.8,335.5 C130.8,333.6 99.3,325.2 99.3,325.2 L90.3,359.3 C89.9,361.9 88.1,363.6 90.8,365.8 C92.2,367.6 95,367.5 97.2,367.6 C98.9,367.3 101,366.9 102,365.3 C104,366.3 104.3,368.9 104.4,370.8 C104.5,375.1 101.6,378.4 98.2,380.3 C92.5,383.2 85.2,382.5 79.5,379.5 C76.9,378.3 73.9,376.1 72.2,373.8 C69.9,374.3 68.5,375.1 66.1,375.3 C62.6,375.4 58.3,375.1 55.2,373 C50.7,370.6 46.6,366 46.6,360.6 C46.5,357.4 48.2,354.5 50.6,352.6 C51.1,352.1 52.1,351.4 52.8,352 C53.5,354.5 55.5,357.1 58.4,357.6 C60.6,357.9 63.2,357.2 64.9,355.5 L65.6,352.9 L74.6,318.7 L36.9,308.7 C34.3,308 32.5,308.7 31.6,310.7 C31.4,311.2 30.9,312.9 31,314.3 C31.2,316.1 32.4,317.8 33.6,319.2 C34.2,320 32.8,320.3 32.3,320.4 C29.3,321.3 25.2,321.1 22.4,319 C18.3,316.7 16.5,311.5 16.4,307.1 C16.4,301.1 19,294.2 24.7,290.8 C22.1,284.5 22.1,275.8 26.6,270.1 C29.6,266.3 34.8,263.2 39.8,264.5 C42.8,265.1 44.6,267 46.3,269.2 C46.6,269.7 46.6,270.5 45.8,270.4 C43.8,270.7 42.2,272.2 41.2,273.9 C39.8,275.9 40.8,278 41.4,280 C42.1,281.3 45.2,282.9 46.6,283.3 L81.6,292.5 C82.5,289.2 91.1,256.4 91.1,256.4 C91.1,253.9 89.4,251.8 87.1,250.9 C84.8,250.1 82.3,250.1 80.3,251.4 C79.6,251.8 79.3,253.2 78.4,252.4 C76.1,249.6 76,245.7 77.3,242.1 C79.3,237.5 85,234.9 89.8,234.7 C93.8,234.7 98.1,235.8 101.5,238 C103.5,239.7 104.9,241.4 106.4,243.8 Z M92.9,238.5 C89.4,238.4 85.9,238.7 82.8,240.5 C80.5,241.9 79.3,245 79.7,247.4 C82.9,246.3 86.8,246.2 89.9,248.2 C92.8,250.1 94.7,253.9 94.4,257.4 C91,270.2 84,296.9 84,296.9 L45.4,286.7 C43.7,286.2 42,285.5 40.5,284.7 C37.8,282.7 36.1,279.3 36.7,275.8 C37.1,272.9 38.3,270.3 40.8,269 C39.5,267.9 37.7,267.9 36,267.8 C31.9,268.8 28.6,271.9 27.3,275.9 C25.1,281 28.7,292.1 28.7,292.1 C27.6,293.1 25.9,293.7 24.9,294.8 C21.1,298.1 18.8,304.5 20.1,309.4 C19.9,310.7 20.8,311.7 21.1,312.8 C21.3,313.4 21.6,314 22.1,314.3 C22.4,315.4 23.5,315.8 24.2,316.5 C25.4,316.8 26.5,317.9 27.8,317.5 C27.7,316.7 27.2,316.1 27,315.3 C26.2,312.1 27.1,308 29.5,305.6 C31.9,303.2 35.3,303.6 40.6,305 C46.9,306.7 79.3,315.2 79.3,315.2 C78.5,318.8 69,354.9 69,354.9 L68,357.7 C66.3,360.7 62.4,362 59.1,362 C55.8,361.7 53,360.2 51.2,357.6 C50.3,358.2 50.3,359.7 50.1,360.7 C50.2,363.8 51.9,366.9 54.2,368.8 C57,371.1 61.1,372.5 64.7,372.2 C66.1,372.4 67.4,371.8 68.7,371.7 C70.5,371.1 71.7,370.8 73.1,369.9 C75.3,372.1 77.6,375.4 80.6,376.8 C83.4,378.6 86.6,379.1 89.8,379.2 C93.8,378.9 98.9,377.3 100.3,373 C100.3,372.2 100.8,371.3 100.2,370.7 C98.8,371.5 97.3,372.1 95.8,372.3 C92,372.7 87.8,370.9 85.8,367.8 C83.7,365.3 84.4,362.1 85,359.2 C86.3,355.5 87.5,351.1 88.2,347.2 L95.3,319.6 C95.3,319.6 123.8,327.1 131.5,329.2 C142.1,332 139.3,332 141.9,333.5 C143.4,334.5 144.4,338.3 144.1,340.6 C144,341.5 143.7,345.3 140.2,347.3 C140,347.4 139.7,347.7 139.8,347.9 C141.9,348.8 144.3,349.1 146.3,348.3 L146.8,347.9 C148,347.7 148.8,346.5 149.8,345.7 C153.6,341.9 154.3,335.7 153.3,330.7 C152.5,328.6 151.9,326.8 150.7,324.7 C154.9,323.3 158.5,319.9 159.7,315.6 C161,310.6 161.7,304.6 157.3,300.8 C155.9,299.9 154,298.7 152.4,299.3 C153.2,300.8 153.5,302.4 153.5,304.1 C153.3,307.2 151.8,310 149.3,311.6 C145.5,314.3 140.7,312.1 136.3,311.1 L100,301.5 L110.5,262.3 C111.7,258.5 115.9,256.1 119.8,255.9 C123.6,256.3 127.1,257.9 129.2,261 C129.5,260.8 129.8,260.4 129.9,259.9 C131,255.9 128.7,251.6 125.5,249.2 C119.7,244.9 112.9,245.7 105.2,248.3 C104.8,247.1 104.7,246.9 104.1,246.1 C101.5,242 97.5,238.8 92.9,238.5 Z" id="Shape"></path>
                            <path d="M423.2,92.6 L346.7,381.9 C342.5,394.6 335.3,406.4 327.1,416.8 C310.7,438.2 286,454.1 259.7,461.9 C239.5,468.3 220,471.2 198.9,470.5 C177.3,469.8 154.8,465.9 133.1,459.8 C80.6,444.4 37.4,411.7 13.6,362.3 C4.1,342.3 -3.7,312 2.2,284 C2.6,282.2 77,0.9 77,0.9 L423.2,92.6 Z M418.3,95 L249.6,50.4 C249.2,52 176.2,328.4 176.2,328.4 C180.3,325.1 186.8,323.7 191.7,322.6 C202.9,320.3 216.5,324.7 224.3,332.9 C225.3,330.3 226.2,327.7 227.6,325.3 C233.7,314.1 248,306.2 260.8,307.2 C271,307.6 280.5,312.4 287.3,319.1 C295.7,327.7 299.1,340 296.9,351.4 C303.3,350.1 310.2,350.4 316.9,352.6 C329.3,356.8 340.5,369.5 342.3,382.6 L418.3,95 Z M246.4,49.7 L79.6,5.6 C79.6,5.6 7.3,278.1 5.9,284.7 C-0.3,320.1 12.3,354.9 28.3,379.3 C54,418 92.5,444.2 138.7,456.7 L138.9,456.8 L246.4,49.7 Z M269.3,311.5 C260.6,308.6 251.8,309.6 244,313.8 C234,319.1 227.7,329.8 227.4,341.2 C227.5,341.5 227.5,342.2 227.1,342.2 C222.4,333.3 214.4,327.3 204.3,325.4 C194,323.6 181.5,326.4 174.6,334.5 C174.6,334.5 143.4,452.3 142.1,457.5 C145.8,458.6 151.3,459.6 154.9,460.4 C163.3,462.2 171.8,463.3 180,464.4 C201.1,466.2 222.1,465.5 242.6,461 C270,455.2 298.5,441 317.7,420.4 C323.7,413.8 329.6,406.7 333.3,398.4 L333.5,398.3 C334.2,396.1 335.6,394.6 336.4,392 C341.2,380.8 334.3,367 324.7,359.9 C315.1,352.6 300.9,351.4 290.6,356.8 L290.4,356.8 C291.8,353.7 292.9,350.3 293.3,346.7 C295,335.1 288.6,321.4 278.3,315.6 C275.6,314 272.6,312.3 269.3,311.5 Z" id="Shape"></path>
                            <path d="M389.1,184.1 C389.3,181.9 390.1,179.4 390.6,177.3 C390.8,175.7 392.3,174.7 392.1,173 L387.4,168.9 L386.7,169 C385,170.3 383.3,171.6 381.4,172.6 C379.9,173.6 377.8,173.5 376.9,175.1 C376.7,177.3 376.3,179.6 375.4,181.7 C374.1,181.6 372.8,181.4 371.6,181.6 C370.8,182 370,182.7 369.4,183.5 C369,184.7 368.6,186.3 369.6,187.5 C365.5,191.7 361.5,195.7 356.6,199.2 C355,200.1 353.6,201.5 352,202.1 C351.6,201.3 352.2,200.5 352.3,199.7 C352.4,197.4 350.8,195.1 348.6,194.2 C348.2,193.8 347.5,194.1 347.2,193.6 C346.7,191.5 346,189.6 345.2,187.6 C344.7,185.3 344.3,182.9 343.1,180.7 C342.7,178.2 342,175.7 340.7,173.3 C340.3,170.4 339.5,167.6 338.1,165 C337.7,162.1 337.2,159.4 335.7,156.8 C335.2,153.9 334.5,151 332.9,148.6 C332.5,146.2 332.2,143.7 330.6,141.5 C330,138 329,134.8 327.3,131.5 C327,129.3 326.3,127.1 325.6,124.9 L325.5,124.1 C326.9,122.7 327.3,120.6 326.8,118.7 C326.3,115.7 323.6,113.7 320.6,113.1 C318.1,112.8 315.3,114.1 314,116.1 C313.2,117.5 312.7,119.4 313.4,120.9 C311.9,122.7 310.6,124.9 309.4,127.1 C307.3,129.2 305.4,131.7 304.2,134.4 C301.8,136.4 300.4,138.9 299,141.7 C297,143.7 295,146.1 293.8,148.8 C291.6,150.6 290,153 288.7,155.4 C287.3,156.9 286.2,158.4 285.1,160.1 C284.4,162.1 282.7,163.4 281.6,165.2 C281,166.3 280.2,167.3 279.6,168.4 C277,170.5 276,173.7 273.7,175.9 C271.2,175.8 269,177.4 267.8,179.2 C266.3,176.3 265.8,173.1 265.3,170.1 C265.7,168 266.4,166 266.4,163.7 C266.5,163 266.1,162.3 266.3,161.6 C265.4,159.6 263.8,157.8 261.4,157.4 C254.5,155.8 248,159.7 241.9,162.6 C237.2,165.5 233,168.6 229.2,172.2 C228.1,173.1 227.3,174.4 226.2,175.2 C225,176.7 223.7,178.1 222.6,179.6 C219.1,184.4 214.5,191.4 217.2,197.5 C218.7,199.9 222.3,200.6 224.8,200.3 C228.2,201.6 231.4,203.5 233.9,206.2 C234.8,206.6 233.8,207.5 233.9,208.1 C233.8,209.1 234.6,210.2 235.4,210.9 C237.1,212.3 239.7,212.6 241.7,212.1 C244.4,213.4 246.6,215.4 248.9,217.4 C249.3,217.9 248.5,218.3 248.8,218.8 C248.5,220 249.6,221 250.3,221.7 C251.7,223.3 254.4,223.4 256.3,223 C261.7,228.6 268.5,232.6 275.9,235.6 C285.9,239.2 296.6,241.3 306.7,240.6 C316.7,240.1 326.6,237.7 336.1,233.5 C337.5,234.3 339.4,234.9 341,234 C342,233.1 343.3,231.9 343.1,230.3 C345,228.9 347.5,227.8 349.5,226.2 C350,225.6 350.8,225.2 351.4,226 C353.3,226.6 355.3,225.7 356.4,224.3 C357.1,222.9 357.7,221.1 357.4,219.5 C364.8,212 371.4,203.6 377.6,195 L379.9,195 C381.2,194.5 382.3,193.4 382.9,192.2 C383.2,191 383.6,189.7 382.6,188.6 C382.4,188.2 381.9,188.1 382,187.6 C384.4,186 386.6,184.6 389.1,184.1 Z M349.2,196.2 C350,197.1 350.5,198.2 350.7,199.2 C350.8,199.8 350.7,200.3 350.6,200.9 C349,201.2 349.7,199.3 349.2,198.6 C348.5,197.7 348,196.9 347.8,195.8 C348.2,195.5 348.8,196 349.2,196.2 Z M347.6,199.1 C348,199.6 348.1,200.4 347.6,200.9 C346.8,201 346,201.7 345.4,201 C345.1,200.6 345,200.2 345.3,199.7 L347.6,199.1 Z M276.5,185.9 C278.3,184.8 279,182.3 278.7,180.2 C278.7,179.6 277.8,178.8 278.6,178.2 L281.1,174.3 C283.3,172.7 284.5,170.1 285.9,167.9 C288,166.2 288.8,163.7 290.2,161.7 C292.1,160.1 293.2,158 294.5,155.9 C296.4,153.7 298.3,151.5 299.6,148.8 C302.7,145.8 304.3,141.8 307.3,138.7 C308.2,137.3 309.2,135.9 309.8,134.2 C312.1,132.1 313.5,129.4 315.2,126.8 L316.2,126.1 C317.6,126.5 319.1,127.2 320.7,127 C322.1,129.2 322.5,131.7 323.2,134.2 C323.5,136 325.4,137.7 325.2,139.7 C325.7,142.1 326.5,144.6 327.7,147 C328,149.6 329.3,152.2 330.3,154.7 C330.6,157.6 331.7,160.6 332.9,163.3 C332.9,164.9 333.4,166.3 333.9,167.8 C334.2,169.6 336.1,171.2 336,173.2 C336,175.1 337.4,177 337.8,178.8 C338.4,181.3 338.8,183.7 340.1,185.9 C340.2,189.3 342.3,192 342.7,195.3 C341.3,196.9 340.1,199.4 341,201.5 C341.7,203.3 343,204.4 344.8,205 C342.8,206 340.3,207.3 338,207.6 C337,206.2 335.2,205.9 333.7,206 C331.6,206.4 330.3,208.1 329.9,210 C328.3,210.4 326.9,210.7 325.4,210.7 C315.4,211.5 303.7,209.1 294.4,204.5 C291.4,202.7 288.2,201.1 285.6,198.8 C284.8,198 285.5,196.9 285.1,196 C284.7,194.5 283.3,193.6 281.9,193 C280.9,192.8 280,193.1 279.1,193.7 C277.1,192 274.8,190.3 273.6,187.8 C274,186.6 275.7,186.6 276.5,185.9 Z M274.3,183.7 C275.9,183.2 275.3,180.6 277.1,180.5 C277.3,181.5 277.1,182.5 276.7,183.4 C276.2,184.1 275.6,185 274.6,185 C274.3,184.5 274.5,184.1 274.3,183.7 Z M319.7,122.2 C318.9,121.9 318.2,121.3 318,120.4 C317.6,119.3 318.4,118.3 319.2,117.6 C320.5,116.8 322.3,118.1 322.3,119.5 C322.2,120.2 322.4,120.8 321.9,121.4 C321.4,122.2 320.5,122.2 319.7,122.2 Z M320.5,125.3 C319.4,125.3 317.9,125.5 317.3,124.5 L318,123.5 L320.1,124.2 L320.5,125.3 Z M343.1,197.6 L343.3,197.5 C344.4,198.6 342.9,200.2 344,201.3 C344.3,201.8 344.6,202.3 345.2,202.4 L345,203.3 C343.8,203.3 343,202.2 342.5,201.3 C342,200 342.3,198.6 343.1,197.6 Z M346.7,197.5 C346.5,198.1 345.9,197.8 345.5,197.9 C344.7,197.1 344.5,196.1 344.2,195.1 C345.1,195.9 346.3,196.5 346.7,197.5 Z M345.3,192.1 L346,195.2 C343.1,194 342.9,190.1 342,187.6 C343.5,188.7 345.1,190 345.3,192.1 Z M343.6,187.1 C341.1,186.1 340.2,183.1 340.1,180.6 L342.3,182.5 C343,184 343.3,185.6 343.6,187.1 Z M341.4,180.3 L339.4,178.7 C338.7,177.6 338.6,176.1 337.9,175 C337.9,174.3 337.5,173.6 337.6,173 C338.5,173.7 339.5,174.4 340.1,175.5 C340.7,177.1 341.1,178.8 341.4,180.3 Z M339.1,172.6 L337.1,170.9 C336.1,169 334.8,167 334.8,164.8 L334.9,164.7 C335.7,165.1 336.2,166 337,166.5 C338.2,168.3 338.8,170.4 339.1,172.6 Z M336.6,164.3 C334.9,163.7 333.7,161.9 333.3,160.2 C333,159 332.4,157.9 332.5,156.6 L334.9,158.4 C335.8,160.3 336.4,162.3 336.6,164.3 Z M334,156.3 C331.9,155.4 331.2,153.2 330.4,151.1 C330.2,150.2 329.9,149.2 329.9,148.3 C332.9,150 333.4,153.5 334,156.3 Z M331.2,147.5 C328.2,146.4 327.4,142.5 327,139.7 L329.2,141.4 C330,143.4 330.8,145.4 331.2,147.5 Z M328.7,139.5 C325.7,138.1 324.2,134.1 324,130.9 L326.2,132.6 C327.4,134.8 328.1,137.2 328.7,139.5 Z M325.8,130.6 L323,128.4 C322.5,127 321.9,125.7 321.8,124.2 C321.9,123.5 322.5,123.1 323.1,122.9 C324.2,125.3 325.3,128.1 325.8,130.6 Z M316.1,116.1 C317,115.3 317.9,115.1 319,114.6 C320.9,114.4 323,115.2 324.3,116.5 C324.9,117.2 325.2,118.1 325.4,118.8 C325.7,120 325.3,121.6 324.6,122.5 C323.8,121.5 323.9,120.1 323.7,118.9 C323.1,117.6 321.9,116.5 320.5,116.2 C318.4,116.3 316.7,117.5 315.6,119.2 L315,119.4 C314.8,118.2 315,116.9 316.1,116.1 Z M316.1,120.5 C317.7,121.8 316.1,123.1 315.4,124.2 L313.6,126.4 L311.3,127 C312.1,124.5 314.3,122.5 316.1,120.5 Z M312.7,128 C311.7,130 310.1,131.4 309,133.1 L306.1,134.2 C307.4,131.6 309.1,128.2 312.7,128 Z M305,135.9 C305.9,135.5 307,135.1 307.9,135 C306.4,137.6 304.7,141.1 301.2,141.1 C301.9,138.9 303.5,137.4 305,135.9 Z M301.8,142.4 L302.5,142.1 C301.4,144.1 300.4,146 298.7,147.5 L296.3,148.2 C297.1,145.7 299.1,143.3 301.8,142.4 Z M293.4,151.2 C294.4,150 295.9,149.6 297.4,149.3 C296.5,151.3 294.8,152.7 293.5,154.3 L290.8,155.1 C291.2,153.6 292.4,152.5 293.4,151.2 Z M291.2,156.4 C291.6,156.5 291.9,156.1 292.3,156.2 C291.6,157.8 290.4,159.2 289.4,160.6 L286.5,161.5 C287.5,159.4 289.1,157.3 291.2,156.4 Z M288,162.3 C287.2,163.9 286,165.4 284.8,166.6 L282,167.6 C283.3,165.4 284.9,162.3 288,162.3 Z M283.5,168.4 C282.7,170.1 281.5,171.6 280.4,173 C279.3,173.4 278.1,173.7 277.1,173.9 C278.7,171.6 280.3,168.7 283.5,168.4 Z M274.7,177.3 C275.4,175.6 277.2,175.2 278.8,174.9 C278.2,176.4 277.1,177.7 276.2,179 C275.6,179.5 274.7,180 274.1,179.4 C273.5,178.7 274.3,177.9 274.7,177.3 Z M273.6,181 L274.3,181.4 C274.4,182 274,182.2 273.6,182.6 L273.4,182.6 C273,181.8 270.7,181.8 272,180.4 C272.6,179.6 273,180.9 273.6,181 Z M271.4,177.9 L272.5,177.5 C272.6,177.8 272.3,178.3 272.3,178.7 C271.2,179.2 270.6,180.1 270.4,181.1 C270.1,181 269.6,181.2 269.1,181.3 C269.2,179.8 270,178.4 271.4,177.9 Z M219.3,196.4 C217.9,194.4 219,191.8 219.4,189.5 C222.8,180.1 230.3,173.7 237.8,167.5 C244.6,162.8 252.2,158.3 260.5,158.9 C261.6,159.3 262.8,159.5 263.5,160.4 C265.8,163.5 264,167.1 263,170.3 C262,172.5 260.5,174.2 259.3,176.2 C254.8,181.6 249.9,186.6 243.8,190.5 C238.1,193.8 232.6,196.8 226.4,198.2 C224.1,198.4 220.9,198.7 219.3,196.4 Z M240.1,200.9 C238.9,200.9 238,202.2 236.8,201.8 C236.4,201.2 235.4,201.6 235.1,200.8 C235.9,199.6 237.8,199.8 238.2,198.5 C236.9,197.3 235.7,199.1 234.4,199.2 C233.8,199.1 232.8,199.2 232.4,198.6 C245,193.6 256.5,184.8 263.5,173.6 C264.5,177 265,180.6 267,183.9 C260.1,192.1 251.1,199.5 240.9,203.9 C240.2,204.3 239.3,203.8 238.4,203.8 L238.1,203.4 C238.9,202.9 239.8,202.4 240.6,201.9 C240.8,201.4 240.5,201 240.1,200.9 Z M240.3,209.9 C239.2,209.7 238.1,210 237.3,209.2 C237,208.7 237.3,208 237.5,207.6 C250.6,203 261.5,194.2 269.9,183.8 C270.2,183.5 270.7,183.6 271.1,183.6 C271.5,183.9 271.8,184.3 272.2,184.6 C272.6,186.2 271,187.3 270.3,188.5 C262.3,197.7 252.4,206.1 240.3,209.9 Z M252.8,214.6 C253.3,213.9 254.4,213.9 254.8,213.1 C254,211.6 252.8,213.5 251.7,213.5 C251,213.5 250.6,212.7 250.4,212.3 C250.7,211.5 251.7,211.3 252.3,210.9 C252.5,210.7 252.3,210.3 252.1,210.2 C250.5,209.8 248.5,212.7 247.6,210.1 L248.2,209 C257.7,204.4 265.4,197.4 272.1,190.1 C273.9,192 275.8,193.8 277.8,195.6 C274.8,200.1 270.3,203.8 266.4,207.6 C263,210.5 259.3,213.4 255.1,215.2 C254.4,215.1 253.6,215.6 253.1,215 L252.8,214.6 Z M255.5,220.9 C254.5,221.2 253.4,221 252.6,220.3 L252.1,219.2 C253.1,217.9 254.8,217.7 256.1,216.9 C266.1,211.6 273.9,204 280.5,195.6 C281.5,195 283.1,195.5 283.3,196.7 C283.5,197.8 282.6,198.5 282.4,199.2 C275.1,208.1 266.8,216.3 255.5,220.9 Z M334.2,228.9 C333.6,228.4 334.4,226.6 333,227 C332.5,228 333.4,229.6 332.3,230.3 C331.8,230.4 331.3,230.4 330.9,230.2 C330.6,229.7 331,228.6 330.1,228.3 C328.6,228.6 330.1,230.3 329.5,231.2 C328.9,231.4 328.2,232 327.7,231.4 C327.3,230.7 327.7,229.5 326.6,229.4 C326.1,230.2 326.4,231.1 326.5,232 C326,232.7 325,232.6 324.2,232.5 C323.9,232 324,231 323.5,230.5 C323.1,230.5 322.5,230.6 322.7,231.1 C322.6,232 323.1,233 322.2,233.4 C321.7,233.6 321.1,233.8 320.7,233.6 C319.7,233.2 320.6,231.5 319.3,231.8 C318.3,232.5 319.4,233.4 318.7,234.2 C317.8,234.3 317,235 316.3,234.4 C316.2,233.8 316.6,233 315.9,232.5 C314.2,232.5 315.9,234.3 314.8,235 C314.1,235.1 313.4,235.7 312.7,235.3 C312.5,234.5 312.7,233.6 312.2,233 C310.6,233 311.9,234.9 311.1,235.6 C310.5,235.6 309.8,236.1 309.2,235.6 C309,234.9 309.1,234.1 308.8,233.4 C308.5,233.2 308.2,233.4 308,233.6 C308,234.4 307.7,235.3 307.5,235.9 C306.9,235.8 305.6,236.3 305.5,235.4 C305.5,234.8 305.7,234.2 305.3,233.8 C304.9,233.7 304.5,233.9 304.4,234.2 C304.1,234.9 304.8,236.2 303.7,236.3 C303.1,236.2 302.4,236.5 302,235.8 C302.1,235.2 302.2,234.5 301.8,233.8 C300.4,233.7 301.3,236 300.1,236.1 C299.5,236.1 298.8,236.1 298.5,235.6 C298.4,234.9 299,234 298.3,233.6 C297.1,233.8 297.6,237 295.6,235.5 C295,234.8 296.1,233.5 295,233.1 C294.3,233.6 294.4,234.5 294,235.3 C293.5,235.6 292.9,235.3 292.4,235 C291.5,234.3 293.6,232.4 291.8,232.5 C291.3,233.1 291.4,234.5 290.4,234.7 C289.8,234.5 289,234.5 288.9,233.8 C288.9,233.1 289.6,232.6 289.2,231.9 C289,231.7 288.5,231.6 288.3,231.8 C287.7,232.4 288.1,233.8 287.1,234.1 C286.4,234 285.4,233.8 285.4,232.9 C285.4,232.3 286.1,231.5 285.6,230.9 C284.3,230.4 284.6,232.6 283.7,232.9 C283.2,233.1 282.5,232.9 282.1,232.6 C281.6,231.6 283.1,230.6 282.3,229.6 C280.8,229.7 281.4,232.2 279.7,232 C279.2,231.9 278.4,231.6 278.7,230.9 C278.8,230 279.7,229.3 279.1,228.5 C277.5,228.5 277.9,231 276.1,230.2 C275.6,230.2 275.4,229.7 275.3,229.3 C275.6,228.5 276.5,227.7 275.9,226.9 C274.5,227.1 274.3,230.2 272.4,228.6 C271.2,227.2 274,226.4 273,225 C271.6,225.4 270.9,228.6 269.2,226.6 C269.2,225.4 270.2,224.6 270.7,223.7 C270.8,223.6 270.6,223.3 270.6,223.2 C268.8,223.2 268.1,226.9 266.4,224.6 C265.9,223.2 268.8,223 268,221.4 C266.5,221.5 264.8,224.8 263.4,222.3 C263.8,221.3 264.9,221.1 265.7,220.3 C265.8,219.9 265.4,219.8 265,219.7 C264,220.1 263.1,221.4 261.9,221 L261.9,220.4 C270.6,215.3 278,208.4 284.3,200.9 C290.4,205 296.9,208.8 304.5,210.9 C313.8,213.6 322.5,213.5 331.5,212.9 C331.5,212.4 332,212.8 332.1,212.9 C334.5,217.9 335.8,223 336.1,228.3 C335.4,228.4 334.9,229.4 334.2,228.9 Z M340.3,232 C339.7,231.9 338.9,232.1 338.5,231.5 C338.1,230 338.3,228.3 338.2,226.8 C337.8,221 335.7,215.3 333.1,209.9 C333,209.1 333.6,208.7 334.3,208.6 C336.5,207.8 336.8,210.9 337.8,212.1 C340.5,217.5 341.3,223.6 341.5,229.7 C341.3,230.6 341.1,231.5 340.3,232 Z M349.2,220.7 C348.5,220.2 349,218.6 347.8,219 C347.1,219.8 347.8,220.9 347.6,222 C347.1,222.3 346.7,223 346.1,222.7 C345.8,222.2 345.8,221.4 345.3,221 C343.6,221.4 345.4,223.4 344.2,224.2 C343.7,224.2 343.1,224.4 343.2,223.7 C342.8,219.1 341.2,214.3 339.1,210.1 C341.5,209.2 344,208.3 346.3,207.4 C348.4,211 349.7,215.3 350.1,219.4 C350,220 349.6,220.5 349.2,220.7 Z M354.4,223.4 C353.9,223.5 353.3,223.7 352.9,223.3 L352.7,222.8 C352.1,216.7 351.1,210.4 347.6,204.9 C347.3,204.3 347.8,203.8 348.2,203.4 C348.5,203.1 348.9,202.9 349.4,202.9 C350.2,203 350.7,203.7 351.1,204.3 C354.3,209.7 355.7,215.6 355.7,221.7 C355.2,222.1 355.2,223.2 354.4,223.4 Z M374.9,193.1 C374.3,192.9 373.8,191.7 373.3,192.7 C373,193.6 374.3,194 373.8,194.9 C373.7,195.4 373.2,195.8 372.8,195.9 C372.2,195.7 372,194.6 371.3,195.1 C370.5,196.1 372.5,196.5 371.7,197.6 C371.4,198 371.2,198.7 370.7,198.6 C370,198.5 370,197.1 369.2,197.6 C368.3,198.2 369.5,199 369.6,199.6 C369.6,200.3 369.1,201 368.5,201.2 C367.9,200.9 367.8,200.2 367,200.1 C365.5,201.1 368.3,201.8 367.1,203.1 C366.8,203.4 366.6,203.8 366.2,203.9 C365.5,203.7 365.4,202.5 364.6,202.8 C364,203.7 365.2,204.3 365.3,205.1 C365,205.8 364.5,206.6 363.7,206.4 C363.2,206.3 363.1,205.1 362.5,205.3 C362.2,205.6 361.8,205.9 362.1,206.3 C362.3,206.9 363,207.3 362.9,208 C362.6,208.3 362.5,209 362,209 C361.1,208.9 361.3,207.4 360.3,207.8 C359.3,209 361.7,210.2 360,211.3 C359.5,211.9 359.3,211.1 359,210.9 C358.9,210.5 358.8,210.1 358.6,209.9 C358.3,209.8 357.9,209.9 357.8,210.2 C357.4,211.2 358.8,212.1 358,212.9 L357.1,213.2 C356.2,210.1 355,206.9 353.4,203.8 C358.9,200.5 364.4,196.2 368.7,191.4 C369.5,190.5 370.5,189.7 371.3,188.7 L375.4,192.3 C375.4,192.6 375.1,192.9 374.9,193.1 Z M380.1,191.7 C379.7,192.1 379.1,192.3 378.7,192.2 C375.9,190.7 373.9,188.2 371.4,186.2 C370.7,185.7 370.9,184.7 371.3,184.1 C374.2,181.4 376.3,186.2 378.6,187.3 C379.4,188 380.4,188.7 380.8,189.8 C381,190.5 380.5,191.1 380.1,191.7 Z M385.5,181.6 C385,181.9 384.3,182.1 383.9,181.6 C383.5,181.2 383,180.9 382.4,180.8 C381.8,181.1 382.6,181.6 382.6,181.9 C383.1,182.2 383,182.7 382.8,183.2 C382.7,183.5 382.4,183.8 382,183.8 C381.4,183.6 380.7,182.4 380.2,183.3 C379.8,184 381.2,184.5 380.3,185.1 L379.8,185.2 C378.9,184.2 376.6,183.5 377.6,181.8 C378.3,179.7 378.6,177.8 378.8,175.8 C381.7,174.5 384.4,172.8 386.9,170.9 C387.8,171.3 388.4,172 389.1,172.6 C389.1,172.9 389.2,173.3 389,173.5 C388.5,173.5 388.3,172.8 387.7,173 C387.5,173.2 387.5,173.6 387.5,173.8 C387.9,174.4 388.5,174.9 388.2,175.6 C388,175.8 388,176.2 387.7,176.2 C387.2,176.1 386.8,175.2 386.3,175.7 C385.8,176.9 387.8,177.5 386.9,178.7 L386.7,179 C386,178.8 385.3,177.7 384.7,178.4 C384.6,179.3 385.6,179.5 385.9,180.1 C385.7,180.6 386,181.2 385.5,181.6 Z" id="Shape"></path>
                        </g>
                    </g>
                </g>
            </g>
        </g>
    </g>
</svg>