<?xml version="1.0" encoding="utf-8"?>
<!-- Generator: Adobe Illustrator 18.1.1, SVG Export Plug-In . SVG Version: 6.00 Build 0)  -->
<!DOCTYPE svg PUBLIC "-//W3C//DTD SVG 1.1//EN" "http://www.w3.org/Graphics/SVG/1.1/DTD/svg11.dtd">
<svg version="1.1" id="logo" xmlns="http://www.w3.org/2000/svg" xmlns:xlink="http://www.w3.org/1999/xlink" x="0px" y="0px"
	 viewBox="0 123.3 595.3 595.3" enable-background="new 0 123.3 595.3 595.3" xml:space="preserve">
<linearGradient id="SVGID_1_" gradientUnits="userSpaceOnUse" x1="55.0914" y1="808.0601" x2="210.094" y2="609.2382" gradientTransform="matrix(2.2825 0 0 -2.2825 0 2044.932)">
	<stop  offset="0" style="stop-color:#313438"/>
	<stop  offset="1" style="stop-color:#18171D"/>
</linearGradient>
<circle fill="url(#SVGID_1_)" cx="297.4" cy="420.7" r="286.9"/>
<path fill="#41454D" d="M262.7,292.2c0,0-154.8-75.8-162.1-79.9C69.2,241.8,44.5,278.5,29,319.6c28.1,15.3,86.7,43.8,113.4,55.7
	c34.2,15.3,77.6,41.1,84.5,92.9c6.8,51.8-51.8,60-96.6,66.2c-33.6,4.6-81.3-10.3-103.4-18.3c14.8,42.5,39.5,80.3,71.2,110.9
	c71.2,5,166.2-3.9,204.3-18.9c40.9-16,116.9-35.6,130.3-133.1C446.7,369.1,262.7,292.2,262.7,292.2z"/>
<g>
	<path fill="#FFFFFF" d="M107.7,263.2h14.6v2.5h-11.6v13h10.7v2.5h-10.7v16.4h-3C107.7,297.7,107.7,263.2,107.7,263.2z"/>
	<path fill="#FFFFFF" d="M151.8,280.6c0-1.6,0-3.2,0-4.6c0-1.6,0.2-3,0.5-4.3c0.2-1.4,0.5-2.5,0.9-3.7c0.5-1.1,0.9-2.1,1.8-3
		c0.7-0.9,1.8-1.4,3-1.8c1.1-0.5,2.7-0.7,4.3-0.7c1.8,0,3.2,0.2,4.3,0.7c1.1,0.5,2.1,1.1,3,1.8c0.7,0.9,1.4,1.8,1.8,3
		c0.5,1.1,0.7,2.3,0.9,3.7c0.2,1.4,0.2,2.7,0.5,4.3c0,1.6,0,3,0,4.6c0,1.6,0,3.2,0,4.6c0,1.6-0.2,3-0.5,4.3
		c-0.2,1.4-0.5,2.5-0.9,3.7c-0.5,1.1-0.9,2.1-1.8,3c-0.7,0.7-1.8,1.4-3,1.8c-1.1,0.5-2.7,0.7-4.3,0.7c-1.8,0-3.2-0.2-4.3-0.7
		c-1.1-0.5-2.1-1.1-3-1.8c-0.7-0.9-1.4-1.8-1.8-3c-0.5-1.1-0.7-2.3-0.9-3.7c-0.2-1.4-0.2-2.7-0.5-4.3
		C151.8,283.5,151.8,282.2,151.8,280.6z M155,280.6c0,2.3,0,4.3,0.2,6.4c0,1.8,0.5,3.4,0.9,4.8s1.1,2.5,2.3,3.2
		c0.9,0.7,2.3,1.1,4.1,1.1s3.2-0.5,4.1-1.1c0.9-0.7,1.8-1.8,2.3-3.2c0.5-1.4,0.7-3,0.9-4.8c0-1.8,0.2-3.9,0.2-6.4
		c0-2.5,0-4.3-0.2-6.4c0-1.8-0.5-3.4-0.9-4.8c-0.5-1.4-1.1-2.5-2.3-3.2c-0.9-0.7-2.3-1.1-4.1-1.1s-3.2,0.5-4.1,1.1s-1.8,1.8-2.3,3.2
		c-0.5,1.4-0.7,3-0.9,4.8C155,276,155,278.3,155,280.6z"/>
	<path fill="#FFFFFF" d="M211.6,265.7h-8.4v-2.5H223v2.5h-8.4v32h-3V265.7z"/>
	<path fill="#FFFFFF" d="M253.6,280.6c0-1.6,0-3.2,0-4.6c0-1.6,0.2-3,0.5-4.3c0.2-1.4,0.5-2.5,0.9-3.7c0.5-1.1,0.9-2.1,1.8-3
		c0.7-0.9,1.8-1.4,3-1.8c1.1-0.5,2.7-0.7,4.3-0.7c1.8,0,3.2,0.2,4.3,0.7c1.1,0.5,2.1,1.1,3,1.8c0.7,0.9,1.4,1.8,1.8,3
		c0.5,1.1,0.7,2.3,0.9,3.7c0.2,1.4,0.2,2.7,0.5,4.3c0,1.6,0,3,0,4.6c0,1.6,0,3.2,0,4.6c0,1.6-0.2,3-0.5,4.3
		c-0.2,1.4-0.5,2.5-0.9,3.7c-0.5,1.1-0.9,2.1-1.8,3c-0.7,0.9-1.8,1.4-3,1.8c-1.1,0.5-2.7,0.7-4.3,0.7c-1.8,0-3.2-0.2-4.3-0.7
		c-1.1-0.5-2.1-1.1-3-1.8c-0.7-0.9-1.4-1.8-1.8-3c-0.5-1.1-0.7-2.3-0.9-3.7c-0.2-1.4-0.2-2.7-0.5-4.3
		C253.6,283.5,253.6,282.2,253.6,280.6z M256.6,280.6c0,2.3,0,4.3,0.2,6.4c0,1.8,0.5,3.4,0.9,4.8s1.1,2.5,2.3,3.2
		c0.9,0.7,2.3,1.1,4.1,1.1s3.2-0.5,4.1-1.1c0.9-0.7,1.8-1.8,2.3-3.2c0.5-1.4,0.7-3,0.9-4.8c0-1.8,0.2-3.9,0.2-6.4
		c0-2.5,0-4.3-0.2-6.4c0-1.8-0.5-3.4-0.9-4.8s-1.1-2.5-2.3-3.2c-0.9-0.7-2.3-1.1-4.1-1.1s-3.2,0.5-4.1,1.1c-0.9,0.7-1.8,1.8-2.3,3.2
		c-0.5,1.4-0.7,3-0.9,4.8S256.6,278.3,256.6,280.6z"/>
	<path fill="#FFFFFF" d="M323.9,282.4h-7.1v-2.5h10v17.3c-3,0.9-6.2,1.4-9.6,1.4c-1.8,0-3.4-0.2-4.8-0.9c-1.1-0.7-2.3-1.4-3-2.3
		c-0.7-0.9-1.4-2.1-1.8-3.2c-0.5-1.1-0.7-2.5-0.7-3.9c-0.2-1.4-0.2-2.7-0.2-3.9c0-1.4,0-2.5,0-3.7s0-2.3,0-3.7s0-2.7,0.2-4.1
		c0.2-1.4,0.5-2.5,0.7-3.9c0.2-1.4,0.9-2.3,1.8-3.2c0.9-0.9,1.8-1.8,3-2.3c1.1-0.7,2.7-0.9,4.8-0.9c3.2,0,5.7,0.7,7.5,2.3
		c1.6,1.6,2.5,3.9,2.5,7.3h-3c0-2.3-0.5-4.1-1.6-5.2s-2.7-1.8-5.2-1.8c-1.8,0-3.4,0.5-4.3,1.1s-1.8,1.8-2.3,3.2
		c-0.5,1.4-0.7,3-0.7,4.8s0,3.9,0,6.2c0,2.3,0,4.1,0,6.2c0,2.1,0.2,3.4,0.7,4.8c0.5,1.4,1.1,2.5,2.3,3.2c0.9,0.7,2.5,1.1,4.3,1.1
		c1.4,0,2.5,0,3.7-0.2s2.1-0.5,2.7-0.7V282.4z"/>
	<path fill="#FFFFFF" d="M363.8,281v16.7h-3v-34.5h9.6c1.6,0,3,0.2,4.1,0.5c1.1,0.2,2.1,0.7,2.5,1.4c0.7,0.7,1.1,1.6,1.4,2.5
		c0.2,1.1,0.5,2.3,0.5,3.9c0,1.1,0,2.1-0.2,3c-0.2,0.9-0.5,1.6-0.7,2.3c-0.2,0.7-0.9,1.4-1.6,1.8c-0.7,0.5-1.6,0.9-2.7,1.1l0,0
		c1.1,0.2,2.1,0.5,2.7,0.9c0.7,0.2,1.1,0.9,1.6,1.8c0.2,0.9,0.5,2.3,0.7,3.9c0.2,1.6,0.2,4.1,0.2,7.3c0,0.7,0,1.4,0.2,2.1
		c0,0.7,0.2,1.4,0.2,2.1h-3c0-0.2-0.2-0.7-0.2-1.6c0-0.7,0-1.6-0.2-2.5c0-0.9,0-1.8,0-2.7c0-0.9,0-1.6,0-2.1s0-0.9,0-1.8
		c0-0.9-0.2-1.8-0.5-2.7c-0.2-0.9-0.9-1.8-1.6-2.5c-0.9-0.7-2.1-1.1-3.7-1.1h-6.4V281z M363.8,278.5h5c1.1,0,2.1,0,3-0.2
		s1.6-0.5,2.1-1.1c0.5-0.5,0.9-1.1,1.1-2.1c0.2-0.9,0.5-2.1,0.5-3.4c0-1.1-0.2-2.1-0.5-3c-0.2-0.7-0.7-1.4-1.1-1.8
		c-0.5-0.5-0.9-0.7-1.6-0.9c-0.7-0.2-1.4-0.2-2.3-0.2h-6.4v12.8H363.8z"/>
	<path fill="#FFFFFF" d="M423.6,263.2l10.7,34.7h-3.2l-2.7-9.1H415l-2.7,9.1h-3l11-34.7H423.6z M427.5,286l-5.9-19.6l0,0l-5.9,19.6
		H427.5z"/>
	<path fill="#FFFFFF" d="M465.2,263.2h14.6v2.5h-11.6v13h10.7v2.5h-10.7v16.4h-3L465.2,263.2L465.2,263.2z"/>
	<path fill="#FFFFFF" d="M94.7,337.2h51.8v15.3H129V444h-16.7v-91.5H94.7C94.7,352.5,94.7,337.2,94.7,337.2z"/>
	<path fill="#FFFFFF" d="M173,444h-16.7V337.2H173v45.7H192v-45.7h17.1v106.6H192v-45.7H173V444z"/>
	<path fill="#FFFFFF" d="M222.3,362.7c0-17.1,8.9-26.9,25.6-26.9c16.4,0,25.6,9.8,25.6,26.9v55.5c0,17.1-8.9,26.9-25.6,26.9
		c-16.4,0-25.6-9.8-25.6-26.9V362.7z M239.2,419.3c0,7.5,3.4,10.5,8.7,10.5c5.2,0,8.7-3,8.7-10.5v-57.5c0-7.5-3.4-10.5-8.7-10.5
		c-5.2,0-8.7,3-8.7,10.5V419.3z"/>
	<path fill="#FFFFFF" d="M321.8,413h0.2l11.2-75.8h23.3v106.6h-15.7v-76.5h-0.2l-11.2,76.5h-15.7l-12.1-75.6h-0.2v75.6h-14.6V337.2
		H310L321.8,413z"/>
	<path fill="#FFFFFF" d="M425.7,444h-16.9l-3-19.4h-20.5l-3,19.4H367l17.1-106.6h24.4L425.7,444z M387.6,410h16.2l-8-53.9h-0.2
		L387.6,410z"/>
	<path fill="#FFFFFF" d="M458.6,336c16.2,0,24.7,9.8,24.7,26.9v3.4h-15.7v-4.3c0-7.5-3-10.5-8.4-10.5s-8.4,3-8.4,10.5
		c0,7.8,3.4,13.5,14.4,23.1c13.9,12.3,18.5,21.2,18.5,33.3c0,17.1-8.4,26.9-25.1,26.9c-16.4,0-25.1-9.8-25.1-26.9v-6.6H449v7.5
		c0,7.5,3.4,10.3,8.7,10.3c5.2,0,8.7-2.7,8.7-10.3c0-7.8-3.4-13.5-14.4-23.1C438,384,433.4,375.1,433.4,363
		C433.9,345.9,442.1,336,458.6,336z"/>
	<path fill="#FFFFFF" d="M146.3,540.5h0.2l11.2-75.8H181v106.6h-15.7v-76.5H165l-11.2,76.5h-15.7L126,495.8h-0.5v75.6h-14.6V464.8
		h23.3L146.3,540.5z"/>
	<path fill="#FFFFFF" d="M200.9,464.8h16.7v106.6h-16.7V464.8z"/>
	<path fill="#FFFFFF" d="M259.3,528.9l-5.2,9.8v32.9h-16.7V465H254v46.1h0.2L276,465h16.7l-23.3,47.5l23.3,59.1h-17.1L259.3,528.9z"
		/>
	<path fill="#FFFFFF" d="M329.8,528.9l-5.2,9.8v32.9h-16.7V465h16.7v46.1h0.2l21.7-46.1h16.7l-23.1,47.2l23.3,59.1h-17.1
		L329.8,528.9z"/>
	<path fill="#FFFFFF" d="M395.3,509.7h23.1V525h-23.1v31.3h29v15.3h-45.7V465h45.7v15.3h-29V509.7z"/>
	<path fill="#FFFFFF" d="M442.1,464.8h16.7v91.5h27.6v15.3h-44.3L442.1,464.8L442.1,464.8z"/>
</g>
</svg>
